<svg width="127" height="120" viewBox="0 0 127 120" fill="none" xmlns="http://www.w3.org/2000/svg">
<g filter="url(#filter0_d_104_40)">
<path d="M6 26.4486L40.0369 2C38.1406 7.99246 34.2801 11.46 35.3592 17.2804C36.4383 23.1008 60 111 60 111L17.534 37.1449L33.2621 43.257C25.6678 33.6042 18.0583 27.9766 6 26.4486Z" fill="black" shape-rendering="crispEdges"/>
<path d="M6 26.4486L40.0369 2C38.1406 7.99246 34.2801 11.46 35.3592 17.2804C36.4383 23.1008 60 111 60 111L17.534 37.1449L33.2621 43.257C25.6678 33.6042 18.0583 27.9766 6 26.4486Z" stroke="#710101" stroke-opacity="0.5" shape-rendering="crispEdges"/>
</g>
<g filter="url(#filter1_d_104_40)">
<path d="M121 26.4486L86.9631 2C88.8594 7.99246 92.7199 11.46 91.6408 17.2804C90.5617 23.1008 67 111 67 111L109.466 37.1449L93.7379 43.257C101.332 33.6042 108.942 27.9766 121 26.4486Z" fill="black" shape-rendering="crispEdges"/>
<path d="M121 26.4486L86.9631 2C88.8594 7.99246 92.7199 11.46 91.6408 17.2804C90.5617 23.1008 67 111 67 111L109.466 37.1449L93.7379 43.257C101.332 33.6042 108.942 27.9766 121 26.4486Z" stroke="#710101" stroke-opacity="0.25" shape-rendering="crispEdges"/>
</g>
<ellipse cx="64" cy="41.75" rx="3" ry="2.75" fill="black"/>
<ellipse cx="64" cy="56.75" rx="3" ry="2.75" fill="black"/>
<ellipse cx="64" cy="73.75" rx="3" ry="2.75" fill="black"/>
<ellipse cx="64" cy="88.75" rx="3" ry="2.75" fill="black"/>
<g filter="url(#filter2_d_104_40)">
<mask id="path-7-inside-1_104_40" fill="white">
<path fill-rule="evenodd" clip-rule="evenodd" d="M51.1131 26.3934C55.0539 24.7156 58.703 22.1289 60.9497 19.2826C61.6628 19.5317 62.4458 19.6693 63.2675 19.6693C64.4825 19.6693 65.6133 19.3683 66.5581 18.8509C68.7099 21.9153 72.4885 24.7585 76.6085 26.5984C81.9126 28.9673 82.6163 4.42256 76.9623 6.32414C73.772 7.39716 69.9614 9.11312 67.5033 11.1281C66.4181 10.2266 64.9209 9.66928 63.2675 9.66928C61.9934 9.66928 60.8122 10.0002 59.8406 10.5645C57.4255 8.72772 54.0145 7.14836 51.1131 6.116C45.4922 4.11603 45.7675 28.6693 51.1131 26.3934Z"/>
</mask>
<path fill-rule="evenodd" clip-rule="evenodd" d="M51.1131 26.3934C55.0539 24.7156 58.703 22.1289 60.9497 19.2826C61.6628 19.5317 62.4458 19.6693 63.2675 19.6693C64.4825 19.6693 65.6133 19.3683 66.5581 18.8509C68.7099 21.9153 72.4885 24.7585 76.6085 26.5984C81.9126 28.9673 82.6163 4.42256 76.9623 6.32414C73.772 7.39716 69.9614 9.11312 67.5033 11.1281C66.4181 10.2266 64.9209 9.66928 63.2675 9.66928C61.9934 9.66928 60.8122 10.0002 59.8406 10.5645C57.4255 8.72772 54.0145 7.14836 51.1131 6.116C45.4922 4.11603 45.7675 28.6693 51.1131 26.3934Z" fill="#FF0000" fill-opacity="0.85" shape-rendering="crispEdges"/>
<path d="M60.9497 19.2826L61.2795 18.3385L60.6064 18.1034L60.1647 18.663L60.9497 19.2826ZM51.1131 26.3934L51.5048 27.3135L51.5048 27.3135L51.1131 26.3934ZM66.5581 18.8509L67.3765 18.2762L66.8624 17.5441L66.0778 17.9738L66.5581 18.8509ZM76.6085 26.5984L77.0163 25.6854L77.0163 25.6854L76.6085 26.5984ZM76.9623 6.32414L77.2811 7.27197L77.2811 7.27197L76.9623 6.32414ZM67.5033 11.1281L66.8643 11.8973L67.4991 12.4246L68.1372 11.9015L67.5033 11.1281ZM59.8406 10.5645L59.2353 11.3604L59.7662 11.7642L60.3429 11.4292L59.8406 10.5645ZM51.1131 6.116L51.4483 5.17387L51.4483 5.17387L51.1131 6.116ZM60.1647 18.663C58.0453 21.3481 54.547 23.8446 50.7214 25.4733L51.5048 27.3135C55.5608 25.5866 59.3607 22.9097 61.7346 19.9021L60.1647 18.663ZM63.2675 18.6693C62.5574 18.6693 61.8859 18.5503 61.2795 18.3385L60.6199 20.2266C61.4397 20.513 62.3343 20.6693 63.2675 20.6693V18.6693ZM66.0778 17.9738C65.2833 18.4089 64.3182 18.6693 63.2675 18.6693V20.6693C64.6469 20.6693 65.9433 20.3277 67.0384 19.728L66.0778 17.9738ZM65.7397 19.4256C68.0219 22.6756 71.9639 25.6194 76.2007 27.5115L77.0163 25.6854C73.0131 23.8976 69.3979 21.155 67.3765 18.2762L65.7397 19.4256ZM76.2007 27.5115C76.6869 27.7287 77.1991 27.8123 77.713 27.7266C78.2222 27.6418 78.6614 27.4029 79.0281 27.0897C79.7355 26.4852 80.2499 25.5395 80.6334 24.5122C81.4111 22.429 81.8269 19.5191 81.8944 16.6601C81.9619 13.8011 81.684 10.8605 80.9896 8.71495C80.6463 7.65424 80.1657 6.67417 79.4757 6.02051C79.1197 5.68327 78.6908 5.41718 78.187 5.29337C77.6784 5.16839 77.156 5.20398 76.6436 5.37631L77.2811 7.27197C77.4755 7.20661 77.6101 7.2111 77.7097 7.23559C77.8142 7.26126 77.9448 7.32519 78.1003 7.47248C78.4332 7.78788 78.7839 8.39489 79.0868 9.33082C79.6848 11.1785 79.9597 13.8695 79.895 16.6129C79.8302 19.3563 79.4291 22.0196 78.7597 23.8128C78.4196 24.7238 78.0531 25.2921 77.7289 25.5691C77.5797 25.6966 77.4654 25.7403 77.3843 25.7538C77.308 25.7666 77.1931 25.7643 77.0163 25.6854L76.2007 27.5115ZM76.6436 5.37631C73.4095 6.46401 69.4655 8.22664 66.8694 10.3547L68.1372 11.9015C70.4574 9.99961 74.1344 8.3303 77.2811 7.27197L76.6436 5.37631ZM63.2675 10.6693C64.6995 10.6693 65.9677 11.1525 66.8643 11.8973L68.1423 10.3589C66.8684 9.30069 65.1422 8.66928 63.2675 8.66928V10.6693ZM60.3429 11.4292C61.1582 10.9556 62.1656 10.6693 63.2675 10.6693V8.66928C61.8213 8.66928 60.4661 9.04475 59.3384 9.69976L60.3429 11.4292ZM50.7779 7.05814C53.6319 8.07365 56.9356 9.61146 59.2353 11.3604L60.446 9.76852C57.9154 7.84398 54.3971 6.22308 51.4483 5.17387L50.7779 7.05814ZM50.7214 25.4733C50.5431 25.5492 50.4281 25.5494 50.3519 25.5354C50.271 25.5204 50.1574 25.4747 50.0105 25.3446C49.6911 25.062 49.3344 24.4873 49.0103 23.5706C48.3722 21.766 48.0175 19.0961 48.0006 16.352C47.9838 13.6079 48.3056 10.9222 48.9359 9.0852C49.2552 8.15471 49.6164 7.55392 49.9549 7.24437C50.113 7.09981 50.2447 7.03814 50.3497 7.01428C50.4498 6.99152 50.5846 6.98938 50.7779 7.05814L51.4483 5.17387C50.9389 4.99263 50.4172 4.94794 49.9064 5.06401C49.4005 5.17899 48.967 5.43753 48.6052 5.7685C47.9037 6.41001 47.406 7.38154 47.0442 8.43611C46.3123 10.5693 45.9831 13.5046 46.0007 16.3643C46.0182 19.2241 46.3833 22.1408 47.1247 24.2373C47.4902 25.2712 47.9882 26.2257 48.6851 26.8424C49.0462 27.162 49.4812 27.4084 49.9889 27.5021C50.5013 27.5967 51.0148 27.5221 51.5048 27.3135L50.7214 25.4733Z" fill="black" fill-opacity="0.7" mask="url(#path-7-inside-1_104_40)"/>
</g>
<defs>
<filter id="filter0_d_104_40" x="0.675035" y="0.715759" width="63.8079" height="118.533" filterUnits="userSpaceOnUse" color-interpolation-filters="sRGB">
<feFlood flood-opacity="0" result="BackgroundImageFix"/>
<feColorMatrix in="SourceAlpha" type="matrix" values="0 0 0 0 0 0 0 0 0 0 0 0 0 0 0 0 0 0 127 0" result="hardAlpha"/>
<feOffset dy="4"/>
<feGaussianBlur stdDeviation="2"/>
<feComposite in2="hardAlpha" operator="out"/>
<feColorMatrix type="matrix" values="0 0 0 0 0 0 0 0 0 0 0 0 0 0 0 0 0 0 0.25 0"/>
<feBlend mode="normal" in2="BackgroundImageFix" result="effect1_dropShadow_104_40"/>
<feBlend mode="normal" in="SourceGraphic" in2="effect1_dropShadow_104_40" result="shape"/>
</filter>
<filter id="filter1_d_104_40" x="62.517" y="0.715759" width="63.8079" height="118.533" filterUnits="userSpaceOnUse" color-interpolation-filters="sRGB">
<feFlood flood-opacity="0" result="BackgroundImageFix"/>
<feColorMatrix in="SourceAlpha" type="matrix" values="0 0 0 0 0 0 0 0 0 0 0 0 0 0 0 0 0 0 127 0" result="hardAlpha"/>
<feOffset dy="4"/>
<feGaussianBlur stdDeviation="2"/>
<feComposite in2="hardAlpha" operator="out"/>
<feColorMatrix type="matrix" values="0 0 0 0 0 0 0 0 0 0 0 0 0 0 0 0 0 0 0.25 0"/>
<feBlend mode="normal" in2="BackgroundImageFix" result="effect1_dropShadow_104_40"/>
<feBlend mode="normal" in="SourceGraphic" in2="effect1_dropShadow_104_40" result="shape"/>
</filter>
<filter id="filter2_d_104_40" x="43" y="6" width="41.9042" height="28.7597" filterUnits="userSpaceOnUse" color-interpolation-filters="sRGB">
<feFlood flood-opacity="0" result="BackgroundImageFix"/>
<feColorMatrix in="SourceAlpha" type="matrix" values="0 0 0 0 0 0 0 0 0 0 0 0 0 0 0 0 0 0 127 0" result="hardAlpha"/>
<feOffset dy="4"/>
<feGaussianBlur stdDeviation="2"/>
<feComposite in2="hardAlpha" operator="out"/>
<feColorMatrix type="matrix" values="0 0 0 0 0.7125 0 0 0 0 0.0653125 0 0 0 0 0.0653125 0 0 0 0.59 0"/>
<feBlend mode="normal" in2="BackgroundImageFix" result="effect1_dropShadow_104_40"/>
<feBlend mode="normal" in="SourceGraphic" in2="effect1_dropShadow_104_40" result="shape"/>
</filter>
</defs>
</svg>
